{"asset":{"version":"2.0","generator":"THREE.GLTFExporter r175"},"scenes":[{"name":"AuxScene","nodes":[21]}],"scene":0,"nodes":[{"mesh":0},{"mesh":1},{"mesh":2},{"mesh":3},{"mesh":4},{"mesh":5},{"mesh":6},{"mesh":7},{"mesh":8},{"mesh":9},{"mesh":10},{"mesh":11},{"mesh":12},{"mesh":13},{"mesh":14},{"mesh":15},{"mesh":16},{"matrix":[0.07630827136460537,0,-0.07630827136460538,0,0,-0.10791619228507142,0,0,0.07630827136460538,0,0.07630827136460537,0,0,0,0,1],"children":[0,1,2,3,4,5,6,7,8,9,10,11,12,13,14,15,16]},{"children":[17]},{"matrix":[1,0,0,0,0,1,0,0,0,0,1,0,-35.50791676458246,7.036189644859351,35.202683697317354,1],"children":[18]},{"children":[19]},{"children":[20]}],"bufferViews":[{"buffer":0,"byteOffset":0,"byteLength":33120,"target":34962,"byteStride":12},{"buffer":0,"byteOffset":33120,"byteLength":22080,"target":34962,"byteStride":8},{"buffer":0,"byteOffset":55200,"byteLength":33120,"target":34962,"byteStride":12},{"buffer":0,"byteOffset":88320,"byteLength":33120,"target":34962,"byteStride":12},{"buffer":0,"byteOffset":121440,"byteLength":22080,"target":34962,"byteStride":8},{"buffer":0,"byteOffset":143520,"byteLength":33120,"target":34962,"byteStride":12},{"buffer":0,"byteOffset":176640,"byteLength":33120,"target":34962,"byteStride":12},{"buffer":0,"byteOffset":209760,"byteLength":22080,"target":34962,"byteStride":8},{"buffer":0,"byteOffset":231840,"byteLength":33120,"target":34962,"byteStride":12},{"buffer":0,"byteOffset":264960,"byteLength":33120,"target":34962,"byteStride":12},{"buffer":0,"byteOffset":298080,"byteLength":22080,"target":34962,"byteStride":8},{"buffer":0,"byteOffset":320160,"byteLength":33120,"target":34962,"byteStride":12},{"buffer":0,"byteOffset":353280,"byteLength":33120,"target":34962,"byteStride":12},{"buffer":0,"byteOffset":386400,"byteLength":22080,"target":34962,"byteStride":8},{"buffer":0,"byteOffset":408480,"byteLength":33120,"target":34962,"byteStride":12},{"buffer":0,"byteOffset":441600,"byteLength":33120,"target":34962,"byteStride":12},{"buffer":0,"byteOffset":474720,"byteLength":22080,"target":34962,"byteStride":8},{"buffer":0,"byteOffset":496800,"byteLength":33120,"target":34962,"byteStride":12},{"buffer":0,"byteOffset":529920,"byteLength":33120,"target":34962,"byteStride":12},{"buffer":0,"byteOffset":563040,"byteLength":22080,"target":34962,"byteStride":8},{"buffer":0,"byteOffset":585120,"byteLength":33120,"target":34962,"byteStride":12},{"buffer":0,"byteOffset":618240,"byteLength":33120,"target":34962,"byteStride":12},{"buffer":0,"byteOffset":651360,"byteLength":22080,"target":34962,"byteStride":8},{"buffer":0,"byteOffset":673440,"byteLength":33120,"target":34962,"byteStride":12},{"buffer":0,"byteOffset":706560,"byteLength":33120,"target":34962,"byteStride":12},{"buffer":0,"byteOffset":739680,"byteLength":22080,"target":34962,"byteStride":8},{"buffer":0,"byteOffset":761760,"byteLength":33120,"target":34962,"byteStride":12},{"buffer":0,"byteOffset":794880,"byteLength":33120,"target":34962,"byteStride":12},{"buffer":0,"byteOffset":828000,"byteLength":22080,"target":34962,"byteStride":8},{"buffer":0,"byteOffset":850080,"byteLength":33120,"target":34962,"byteStride":12},{"buffer":0,"byteOffset":883200,"byteLength":33120,"target":34962,"byteStride":12},{"buffer":0,"byteOffset":916320,"byteLength":22080,"target":34962,"byteStride":8},{"buffer":0,"byteOffset":938400,"byteLength":33120,"target":34962,"byteStride":12},{"buffer":0,"byteOffset":971520,"byteLength":33120,"target":34962,"byteStride":12},{"buffer":0,"byteOffset":1004640,"byteLength":22080,"target":34962,"byteStride":8},{"buffer":0,"byteOffset":1026720,"byteLength":33120,"target":34962,"byteStride":12},{"buffer":0,"byteOffset":1059840,"byteLength":33120,"target":34962,"byteStride":12},{"buffer":0,"byteOffset":1092960,"byteLength":22080,"target":34962,"byteStride":8},{"buffer":0,"byteOffset":1115040,"byteLength":33120,"target":34962,"byteStride":12},{"buffer":0,"byteOffset":1148160,"byteLength":33120,"target":34962,"byteStride":12},{"buffer":0,"byteOffset":1181280,"byteLength":22080,"target":34962,"byteStride":8},{"buffer":0,"byteOffset":1203360,"byteLength":33120,"target":34962,"byteStride":12},{"buffer":0,"byteOffset":1236480,"byteLength":33120,"target":34962,"byteStride":12},{"buffer":0,"byteOffset":1269600,"byteLength":22080,"target":34962,"byteStride":8},{"buffer":0,"byteOffset":1291680,"byteLength":33120,"target":34962,"byteStride":12},{"buffer":0,"byteOffset":1324800,"byteLength":33120,"target":34962,"byteStride":12},{"buffer":0,"byteOffset":1357920,"byteLength":22080,"target":34962,"byteStride":8},{"buffer":0,"byteOffset":1380000,"byteLength":33120,"target":34962,"byteStride":12},{"buffer":0,"byteOffset":1413120,"byteLength":33120,"target":34962,"byteStride":12},{"buffer":0,"byteOffset":1446240,"byteLength":22080,"target":34962,"byteStride":8},{"buffer":0,"byteOffset":1468320,"byteLength":33120,"target":34962,"byteStride":12}],"buffers":[{"byteLength":1501440,"uri":"data:application/octet-stream;base64,"}],"accessors":[{"bufferView":0,"componentType":5126,"count":2760,"max":[53.26800537109375,110.76599884033203,4.599999904632568],"min":[-0.3000044524669647,19.63599967956543,-0.6000000238418579],"type":"VEC3"},{"bufferView":1,"componentType":5126,"count":2760,"max":[110.76599884033203,110.46600341796875],"min":[-0.3000044524669647,-3.5999999046325684],"type":"VEC2"},{"bufferView":2,"componentType":5126,"count":2760,"max":[1,1,1],"min":[-1,-1,-1],"type":"VEC3"},{"bufferView":3,"componentType":5126,"count":2760,"max":[107.8530044555664,110.76599884033203,4.599999904632568],"min":[54.28599548339844,19.63599967956543,-0.6000000238418579],"type":"VEC3"},{"bufferView":4,"componentType":5126,"count":2760,"max":[110.76599884033203,110.46600341796875],"min":[19.63599967956543,-3.5999999046325684],"type":"VEC2"},{"bufferView":5,"componentType":5126,"count":2760,"max":[1,1,1],"min":[-1,-1,-1],"type":"VEC3"},{"bufferView":6,"componentType":5126,"count":2760,"max":[162.43800354003906,110.76699829101562,4.599999904632568],"min":[108.8709945678711,19.63599967956543,-0.6000000238418579],"type":"VEC3"},{"bufferView":7,"componentType":5126,"count":2760,"max":[162.43800354003906,110.46700286865234],"min":[19.63599967956543,-3.5999999046325684],"type":"VEC2"},{"bufferView":8,"componentType":5126,"count":2760,"max":[1,1,1],"min":[-1,-1,-1],"type":"VEC3"},{"bufferView":9,"componentType":5126,"count":2760,"max":[217.0260009765625,110.76699829101562,4.599999904632568],"min":[163.45799255371094,19.63599967956543,-0.6000000238418579],"type":"VEC3"},{"bufferView":10,"componentType":5126,"count":2760,"max":[217.0260009765625,110.46700286865234],"min":[19.63599967956543,-3.5999999046325684],"type":"VEC2"},{"bufferView":11,"componentType":5126,"count":2760,"max":[1,1,1],"min":[-1,-1,-1],"type":"VEC3"},{"bufferView":12,"componentType":5126,"count":2760,"max":[271.614013671875,110.76699829101562,4.599999904632568],"min":[218.0469970703125,19.63599967956543,-0.6000000238418579],"type":"VEC3"},{"bufferView":13,"componentType":5126,"count":2760,"max":[271.614013671875,110.46700286865234],"min":[19.63599967956543,-3.5999999046325684],"type":"VEC2"},{"bufferView":14,"componentType":5126,"count":2760,"max":[1,1,1],"min":[-1,-1,-1],"type":"VEC3"},{"bufferView":15,"componentType":5126,"count":2760,"max":[326.20001220703125,110.76599884033203,4.599999904632568],"min":[272.63299560546875,19.63499641418457,-0.6000000238418579],"type":"VEC3"},{"bufferView":16,"componentType":5126,"count":2760,"max":[326.20001220703125,110.46600341796875],"min":[19.63499641418457,-3.5999999046325684],"type":"VEC2"},{"bufferView":17,"componentType":5126,"count":2760,"max":[1,1,1],"min":[-1,-1,-1],"type":"VEC3"},{"bufferView":18,"componentType":5126,"count":2760,"max":[380.78399658203125,110.76599884033203,4.599999904632568],"min":[327.21697998046875,19.635000228881836,-0.6000000238418579],"type":"VEC3"},{"bufferView":19,"componentType":5126,"count":2760,"max":[380.78399658203125,110.46600341796875],"min":[19.635000228881836,-3.5999999046325684],"type":"VEC2"},{"bufferView":20,"componentType":5126,"count":2760,"max":[1,1,1],"min":[-1,-1,-1],"type":"VEC3"},{"bufferView":21,"componentType":5126,"count":2760,"max":[435.3710021972656,110.76599884033203,4.599999904632568],"min":[381.8039855957031,19.635000228881836,-0.6000000238418579],"type":"VEC3"},{"bufferView":22,"componentType":5126,"count":2760,"max":[435.3710021972656,110.46600341796875],"min":[19.635000228881836,-3.5999999046325684],"type":"VEC2"},{"bufferView":23,"componentType":5126,"count":2760,"max":[1,1,1],"min":[-1,-1,-1],"type":"VEC3"},{"bufferView":24,"componentType":5126,"count":2760,"max":[489.95501708984375,110.76599884033203,4.599999904632568],"min":[436.3869934082031,19.635000228881836,-0.6000000238418579],"type":"VEC3"},{"bufferView":25,"componentType":5126,"count":2760,"max":[489.95501708984375,110.46600341796875],"min":[19.635000228881836,-3.5999999046325684],"type":"VEC2"},{"bufferView":26,"componentType":5126,"count":2760,"max":[1,1,1],"min":[-1,-1,-1],"type":"VEC3"},{"bufferView":27,"componentType":5126,"count":2760,"max":[544.541015625,110.76599884033203,4.599999904632568],"min":[490.9739990234375,19.635000228881836,-0.6000000238418579],"type":"VEC3"},{"bufferView":28,"componentType":5126,"count":2760,"max":[544.541015625,110.46600341796875],"min":[19.635000228881836,-3.5999999046325684],"type":"VEC2"},{"bufferView":29,"componentType":5126,"count":2760,"max":[1,1,1],"min":[-1,-1,-1],"type":"VEC3"},{"bufferView":30,"componentType":5126,"count":2760,"max":[599.1270141601562,110.76499938964844,4.599999904632568],"min":[545.5599975585938,19.634000778198242,-0.6000000238418579],"type":"VEC3"},{"bufferView":31,"componentType":5126,"count":2760,"max":[599.1270141601562,110.46499633789062],"min":[19.634000778198242,-3.5999999046325684],"type":"VEC2"},{"bufferView":32,"componentType":5126,"count":2760,"max":[1,1,1],"min":[-1,-1,-1],"type":"VEC3"},{"bufferView":33,"componentType":5126,"count":2760,"max":[653.7130126953125,110.76599884033203,4.599999904632568],"min":[600.14501953125,19.635000228881836,-0.6000000238418579],"type":"VEC3"},{"bufferView":34,"componentType":5126,"count":2760,"max":[653.7130126953125,110.46600341796875],"min":[19.635000228881836,-3.5999999046325684],"type":"VEC2"},{"bufferView":35,"componentType":5126,"count":2760,"max":[1,1,1],"min":[-1,-1,-1],"type":"VEC3"},{"bufferView":36,"componentType":5126,"count":2760,"max":[708.2999877929688,110.76599884033203,4.599999904632568],"min":[654.7319946289062,19.635000228881836,-0.6000000238418579],"type":"VEC3"},{"bufferView":37,"componentType":5126,"count":2760,"max":[708.2999877929688,110.46600341796875],"min":[19.635000228881836,-3.5999999046325684],"type":"VEC2"},{"bufferView":38,"componentType":5126,"count":2760,"max":[1,1,1],"min":[-1,-1,-1],"type":"VEC3"},{"bufferView":39,"componentType":5126,"count":2760,"max":[762.885009765625,110.76599884033203,4.599999904632568],"min":[709.3189697265625,19.635000228881836,-0.6000000238418579],"type":"VEC3"},{"bufferView":40,"componentType":5126,"count":2760,"max":[762.885009765625,110.46600341796875],"min":[19.635000228881836,-3.5999999046325684],"type":"VEC2"},{"bufferView":41,"componentType":5126,"count":2760,"max":[1,1,1],"min":[-1,-1,-1],"type":"VEC3"},{"bufferView":42,"componentType":5126,"count":2760,"max":[817.77197265625,110.76599884033203,4.599999904632568],"min":[764.2039794921875,19.635000228881836,-0.6000000238418579],"type":"VEC3"},{"bufferView":43,"componentType":5126,"count":2760,"max":[817.77197265625,110.46600341796875],"min":[19.635000228881836,-3.5999999046325684],"type":"VEC2"},{"bufferView":44,"componentType":5126,"count":2760,"max":[1,1,1],"min":[-1,-1,-1],"type":"VEC3"},{"bufferView":45,"componentType":5126,"count":2760,"max":[872.3579711914062,110.76599884033203,4.599999904632568],"min":[818.7899780273438,19.635000228881836,-0.6000000238418579],"type":"VEC3"},{"bufferView":46,"componentType":5126,"count":2760,"max":[872.3579711914062,110.46600341796875],"min":[19.635000228881836,-3.5999999046325684],"type":"VEC2"},{"bufferView":47,"componentType":5126,"count":2760,"max":[1,1,1],"min":[-1,-1,-1],"type":"VEC3"},{"bufferView":48,"componentType":5126,"count":2760,"max":[926.9439697265625,110.76599884033203,4.599999904632568],"min":[873.3770141601562,19.635000228881836,-0.6000000238418579],"type":"VEC3"},{"bufferView":49,"componentType":5126,"count":2760,"max":[926.9439697265625,110.46600341796875],"min":[19.635000228881836,-3.5999999046325684],"type":"VEC2"},{"bufferView":50,"componentType":5126,"count":2760,"max":[1,1,1],"min":[-1,-1,-1],"type":"VEC3"}],"materials":[{"pbrMetallicRoughness":{"baseColorFactor":[0.6375968739867731,0.6653872982754769,0.7083757798856457,1],"metallicFactor":0,"roughnessFactor":0.3},"doubleSided":true,"extensions":{"KHR_materials_transmission":{"transmissionFactor":1},"KHR_materials_volume":{"thicknessFactor":0,"attenuationColor":[1,1,1]}}}],"meshes":[{"primitives":[{"mode":4,"attributes":{"POSITION":0,"TEXCOORD_0":1,"NORMAL":2},"material":0}]},{"primitives":[{"mode":4,"attributes":{"POSITION":3,"TEXCOORD_0":4,"NORMAL":5},"material":0}]},{"primitives":[{"mode":4,"attributes":{"POSITION":6,"TEXCOORD_0":7,"NORMAL":8},"material":0}]},{"primitives":[{"mode":4,"attributes":{"POSITION":9,"TEXCOORD_0":10,"NORMAL":11},"material":0}]},{"primitives":[{"mode":4,"attributes":{"POSITION":12,"TEXCOORD_0":13,"NORMAL":14},"material":0}]},{"primitives":[{"mode":4,"attributes":{"POSITION":15,"TEXCOORD_0":16,"NORMAL":17},"material":0}]},{"primitives":[{"mode":4,"attributes":{"POSITION":18,"TEXCOORD_0":19,"NORMAL":20},"material":0}]},{"primitives":[{"mode":4,"attributes":{"POSITION":21,"TEXCOORD_0":22,"NORMAL":23},"material":0}]},{"primitives":[{"mode":4,"attributes":{"POSITION":24,"TEXCOORD_0":25,"NORMAL":26},"material":0}]},{"primitives":[{"mode":4,"attributes":{"POSITION":27,"TEXCOORD_0":28,"NORMAL":29},"material":0}]},{"primitives":[{"mode":4,"attributes":{"POSITION":30,"TEXCOORD_0":31,"NORMAL":32},"material":0}]},{"primitives":[{"mode":4,"attributes":{"POSITION":33,"TEXCOORD_0":34,"NORMAL":35},"material":0}]},{"primitives":[{"mode":4,"attributes":{"POSITION":36,"TEXCOORD_0":37,"NORMAL":38},"material":0}]},{"primitives":[{"mode":4,"attributes":{"POSITION":39,"TEXCOORD_0":40,"NORMAL":41},"material":0}]},{"primitives":[{"mode":4,"attributes":{"POSITION":42,"TEXCOORD_0":43,"NORMAL":44},"material":0}]},{"primitives":[{"mode":4,"attributes":{"POSITION":45,"TEXCOORD_0":46,"NORMAL":47},"material":0}]},{"primitives":[{"mode":4,"attributes":{"POSITION":48,"TEXCOORD_0":49,"NORMAL":50},"material":0}]}],"extensionsUsed":["KHR_materials_transmission","KHR_materials_volume"]}